<?xml version="1.0" encoding="utf-8"?>
<!-- Generator: Adobe Illustrator 27.3.1, SVG Export Plug-In . SVG Version: 6.00 Build 0)  -->
<svg version="1.1" id="Layer_1" xmlns="http://www.w3.org/2000/svg" xmlns:xlink="http://www.w3.org/1999/xlink" x="0px" y="0px"
	 viewBox="0 0 48 46" style="enable-background:new 0 0 48 46;" xml:space="preserve">
<style type="text/css">
	.st0{fill:#549065;}
</style>
<g>
	<path class="st0" d="M21.6,20.9c-0.8-1.3-1.9-2.3-3.2-3.1c-1.4-0.7-2.9-1.1-4.6-1.1c-1.8,0-3.3,0.4-4.7,1.1
		c-1.4,0.8-2.5,1.8-3.3,3.1c-0.8,1.3-1.2,2.9-1.2,4.6c0,1.7,0.4,3.2,1.2,4.5c0.8,1.3,2,2.4,3.4,3.1c1.5,0.8,3.2,1.2,5.2,1.2
		c1.6,0,2.9-0.2,4.1-0.7c1.2-0.5,2.2-1.2,3-2.1l-2.7-2.9c-0.6,0.6-1.2,1-1.9,1.2c-0.7,0.3-1.5,0.4-2.4,0.4c-1,0-1.9-0.2-2.7-0.6
		s-1.3-0.9-1.8-1.6C10,27.9,9.8,27.5,9.7,27h13c0-0.2,0-0.5,0.1-0.7c0-0.2,0-0.5,0-0.7C22.8,23.8,22.4,22.2,21.6,20.9z M9.6,24.1
		c0.1-0.5,0.2-1,0.5-1.5c0.4-0.7,0.9-1.2,1.5-1.6c0.7-0.4,1.4-0.6,2.2-0.6c0.9,0,1.6,0.2,2.2,0.6c0.6,0.4,1.1,0.9,1.5,1.5
		c0.2,0.4,0.4,0.9,0.5,1.5H9.6z"/>
	<path class="st0" d="M33.8,34.6c-1.8,0-3.5-0.2-5.1-0.7c-1.6-0.5-3-1.1-4-1.9l1.8-3.9c1,0.7,2.1,1.2,3.4,1.7c1.3,0.4,2.6,0.7,4,0.7
		c1,0,1.8-0.1,2.5-0.3c0.6-0.2,1.1-0.5,1.4-0.8c0.3-0.4,0.4-0.8,0.4-1.2c0-0.6-0.2-1.1-0.7-1.4c-0.5-0.4-1.1-0.6-1.9-0.9
		c-0.8-0.2-1.6-0.4-2.5-0.6c-0.9-0.2-1.9-0.5-2.8-0.8c-0.9-0.3-1.8-0.7-2.5-1.2c-0.8-0.5-1.4-1.1-1.9-1.9c-0.5-0.8-0.7-1.7-0.7-2.9
		c0-1.3,0.3-2.4,1-3.5c0.7-1.1,1.7-1.9,3.1-2.5c1.4-0.6,3.2-0.9,5.3-0.9c1.4,0,2.8,0.2,4.2,0.5c1.4,0.3,2.6,0.8,3.6,1.5l-1.6,3.9
		c-1-0.6-2.1-1-3.1-1.3c-1-0.3-2.1-0.4-3.1-0.4c-1,0-1.8,0.1-2.5,0.4c-0.6,0.2-1.1,0.5-1.4,0.9c-0.3,0.4-0.4,0.8-0.4,1.3
		c0,0.6,0.2,1,0.7,1.4c0.5,0.4,1.1,0.6,1.9,0.8c0.8,0.2,1.6,0.4,2.5,0.6c0.9,0.2,1.9,0.5,2.8,0.7c0.9,0.3,1.8,0.7,2.5,1.1
		c0.8,0.5,1.4,1.1,1.9,1.9c0.5,0.8,0.7,1.7,0.7,2.9c0,1.3-0.4,2.4-1.1,3.5c-0.7,1-1.8,1.9-3.1,2.5C37.7,34.3,36,34.6,33.8,34.6z"/>
</g>
</svg>
